<?xml version="1.0" encoding="utf-8"?>
<!-- Generator: Adobe Illustrator 23.0.3, SVG Export Plug-In . SVG Version: 6.00 Build 0)  -->
<svg version="1.1" id="Ebene_1" xmlns="http://www.w3.org/2000/svg" xmlns:xlink="http://www.w3.org/1999/xlink" x="0px" y="0px"
	 viewBox="0 0 114.46 55.46" style="enable-background:new 0 0 114.46 55.46;" xml:space="preserve">
<style type="text/css">
	.st0{fill:#FFFFFF;}
</style>
<g>
	<path class="st0" d="M26.8,31.86v-0.02c0.94-0.64,2.45-1.73,2.45-5.25c0-4.54-2.46-6.6-5.79-6.6h-7.27v24.94h7.23
		c4.1,0,6.09-2.92,6.09-7.28C29.51,33.6,27.86,32.48,26.8,31.86 M20.46,23.85h2.32c1.2,0,2.17,0.85,2.17,3.18
		c0,2.36-1.12,3.18-2.17,3.18h-2.32V23.85z M22.83,41.1h-2.38v-7.04h2.38c1.63,0,2.38,1.17,2.38,3.26
		C25.22,40.18,24.31,41.1,22.83,41.1"/>
	<path class="st0" d="M46.08,36.59c0-3.11-1-3.98-2.37-4.73v-0.02c0.94-0.64,2.44-1.73,2.44-5.25c0-4.54-2.45-6.6-5.78-6.6H33.1
		v24.95h4.27l0-10.89h2.32c1.22,0,2.08,0.97,2.08,3.18v7.71h4.31L46.08,36.59z M37.37,23.85h2.32c1.2,0,2.16,0.85,2.16,3.18
		c0,2.36-1.12,3.17-2.16,3.17h-2.32V23.85z"/>
	<path class="st0" d="M57.19,11.69c-1.81,0-7.05,0.39-7.05,5.44v27.82h4.27V34.06h5.55l0,10.88h4.28V17.12
		C64.24,12.07,58.99,11.69,57.19,11.69 M54.41,17.74c0-1.88,1.79-2.12,2.78-2.12c0.99,0,2.77,0.24,2.77,2.12l0,12.46h-5.56
		L54.41,17.74z"/>
	<path class="st0" d="M77.04,19.99l0,19.63c0,1-0.86,1.67-2.13,1.67c-1.28,0-2.12-0.67-2.12-1.67l0-19.63l-4.27,0l0,20.29
		c0,3.24,2.91,4.49,5.2,4.81h2.41c2.27-0.32,5.2-1.57,5.2-4.81V19.99H77.04z"/>
	<path class="st0" d="M94.12,44.94V25.31c0-1-0.86-1.67-2.14-1.67c-1.28,0-2.13,0.67-2.13,1.67l0,19.63l-4.27,0l0-20.29
		c0-3.86,4.13-4.89,6.41-4.89c2.26,0,6.4,1.03,6.4,4.9v20.28H94.12z"/>
</g>
</svg>
